<svg t="1777797809104" class="icon" viewBox="0 0 8294 1024" version="1.1" xmlns="http://www.w3.org/2000/svg" p-id="920" width="200" height="200"><path d="M6673.855855 1024V0h415.95474v454.367558c18.543026-17.216258 45.041369-35.76457 74.177388-58.277326L7670.025459 2.642963h294.09302l-576.250421 463.644356 657.056359 557.702109h-455.704896l-475.569404-393.441984c-9.282085-6.62855-17.221544-11.925047-23.850094-18.553597v411.979723h-415.944168v0.02643zM419.919183 148.370634H0V0.005286h1257.141017v148.365348h-414.633258v875.629366H419.929755l-0.010572-875.629366z m1397.561619 875.629366h-414.622686V0H2391.08826c230.498054 0 299.384231 157.636861 299.384232 279.509152v226.523038c0 117.897275-103.329266 237.13189-303.359247 237.13189H1817.486088l-0.005286 280.83592z m0-429.201268h340.450584s113.927546-2.653534 113.927546-98.027482V251.6999s0-100.675731-113.927546-100.675731l-340.450584-2.648249v446.422812z m1010.753472-11.925047V434.503051h427.879786v148.370634H2828.234274z m817.346754 441.126315c-188.11022 0-276.86619-123.20963-276.866189-278.182385V0h415.954739v778.92865c0 66.237929 56.955844 98.027483 116.575794 98.027483h638.508048v147.033295H3645.581028v0.010572z m1398.888387 0H4628.514676V0h415.954739v1024z m324.545235 0h-172.204871V0c0 2.648249 272.885888 0 272.885888 0 68.891463 0 149.697401 34.448374 193.412003 76.830923l675.599384 680.911739V0h174.858406v1024h-323.223754c-75.49887 0-123.199058-33.121607-173.536924-80.805938L5369.01465 303.359247m2862.703792-104.645461h-21.207132l-11.925047-38.42339c-2.653534-6.623264-7.950031-11.919761-11.925047-17.221545-7.950031-3.96973-14.56801-6.623264-22.518042-6.623264h-35.775141v62.262913h-18.543026V52.9914h64.895304c11.925047 0 21.207132 0 27.82511 2.648249 7.960603 2.648249 11.935619 6.623264 17.232116 14.573295 5.307069 6.623264 6.62855 13.246529 6.62855 23.844809 0 9.271513-1.321481 18.548311-9.282085 25.171576-3.964444 5.301783-11.925047 10.59828-23.839522 11.925047 11.914475 5.296497 19.875079 11.919761 23.839522 26.493057l14.59444 41.066353z m-103.334552-79.489743h43.714602c11.925047 0 21.207132-1.321481 26.493057-6.623265 6.62855-2.648249 9.282085-9.276799 9.282084-18.548311 0-17.221544-11.925047-26.493057-31.800126-26.493057h-47.684331" fill="#FFFFFF" p-id="921"></path><path d="M8162.826979 0c-71.534426 0-129.817037 59.609378-129.817037 131.14909 0 72.861193 58.277325 132.470571 129.817037 132.470571 74.18796 0 131.159662-59.604092 131.159662-132.470571C8293.970783 59.609378 8237.014939 0 8162.826979 0z m0 241.096334c-59.609378 0-108.631049-50.337866-108.631049-109.95253s49.016384-107.298995 108.631049-107.298995c59.61995 0 109.95253 47.684331 109.95253 107.298995-0.015858 59.614664-50.343152 109.95253-109.95253 109.95253" fill="#FFFFFF" p-id="922"></path></svg>
